<svg width="1448" height="552" xmlns="http://www.w3.org/2000/svg" xmlns:xlink="http://www.w3.org/1999/xlink" xml:space="preserve" overflow="hidden"><g transform="translate(-1164 -770)"><g><g><g><path d="M0 0C0-1.62407-0.245143-3.12-0.732643-4.48222-1.22293-5.85-1.95279-7.03393-2.91664-8.03679-3.88329-9.04243-5.0895-9.83079-6.5325-10.3963-7.97272-10.9618-9.63579-11.2459-11.5161-11.2459-13.4244-11.2459-15.0986-10.9618-16.5388-10.3963-17.9846-9.83079-19.1852-9.04243-20.1519-8.03679-21.1185-7.03393-21.8456-5.85-22.3359-4.48222-22.8262-3.12-23.0713-1.62407-23.0713 0L-23.0713 16.809-17.0402 16.809-17.0402 0.231214C-17.0402-0.621215-16.9065-1.404-16.6363-2.1255-16.3661-2.847-15.9844-3.471-15.4969-4.00029-15.0094-4.52957-14.4216-4.94186-13.7364-5.23714-13.0566-5.53522-12.3129-5.68286-11.5161-5.68286-10.7166-5.68286-9.984-5.53522-9.31265-5.23714-8.64407-4.94186-8.06465-4.52957-7.57436-4.00029-7.08407-3.471-6.70522-2.847-6.435-2.1255-6.16479-1.404-6.02829-0.621215-6.02829 0.231214L-6.02829 16.809 0 16.809Z" fill="#1C5DB1" transform="matrix(1 0 0 -1.00078 1983.12 1236.79)"/><path d="M0 0C0 0.4875 0.0891429 0.952715 0.270214 1.39007 0.451286 1.82743 0.702 2.20629 1.02236 2.53222 1.3455 2.85257 1.72436 3.10329 2.1645 3.28436 2.60186 3.46264 3.06429 3.55457 3.55457 3.55457 4.04207 3.55457 4.50729 3.46264 4.94743 3.28436 5.382 3.10329 5.76365 2.85257 6.084 2.53222 6.40715 2.20629 6.66065 1.82743 6.83893 1.39007 7.02 0.952715 7.10915 0.4875 7.10915 0 7.10915-0.490286 7.02-0.9555 6.83893-1.39007 6.66065-1.83021 6.40715-2.20907 6.084-2.53222 5.76365-2.85536 5.382-3.10607 4.94743-3.28714 4.50729-3.46264 4.04207-3.55457 3.55457-3.55457 3.06429-3.55457 2.60186-3.46264 2.1645-3.28714 1.72436-3.10607 1.3455-2.85536 1.02236-2.53222 0.702-2.20907 0.451286-1.83021 0.270214-1.39007 0.0891429-0.9555 0-0.490286 0 0" fill="#1C5DB1" transform="matrix(1 0 0 -1.00078 1987.45 1244.02)"/><path d="M0 0C-0.490286 0.618429-1.15329 1.07529-1.99179 1.37336-2.83029 1.66586-3.62143 1.81629-4.368 1.81629-4.80814 1.81629-5.25664 1.76336-5.71907 1.66029-6.18429 1.55721-6.62165 1.39564-7.03393 1.17836-7.449 0.958286-7.78329 0.668572-8.03679 0.306429-8.29586-0.0529286-8.42679-0.490286-8.42679-1.00564-8.42679-1.83021-8.11757-2.45979-7.49915-2.89714-6.87793-3.33729-6.1035-3.70779-5.15914-4.01979-4.22036-4.329-3.20636-4.63822-2.1255-4.94743-1.04464-5.25664-0.0362143-5.69679 0.905357-6.26229 1.84693-6.82779 2.62414-7.58829 3.24536-8.53822 3.86379-9.49372 4.173-10.7696 4.173-12.3658 4.173-13.8868 3.88607-15.2128 3.32057-16.3466 2.75507-17.4804 1.989-18.4219 1.02236-19.1685 0.0557143-19.9151-1.06414-20.4694-2.34-20.8288-3.61586-21.1882-4.95857-21.3692-6.3765-21.3692-8.15657-21.3692-9.80572-21.099-11.3239-20.5586-12.8449-20.0182-14.2601-19.1406-15.5749-17.9316L-11.2849-13.2154C-10.6693-14.04-9.8865-14.6807-8.94772-15.1292-8.00615-15.5805-7.03393-15.8061-6.03107-15.8061-5.54079-15.8061-5.04493-15.7476-4.54072-15.6306-4.03929-15.5164-3.59079-15.3437-3.19243-15.1097-2.79129-14.8785-2.46814-14.5832-2.223-14.2211-1.97786-13.8589-1.85807-13.4355-1.85807-12.9452-1.85807-12.1206-2.17286-11.4716-2.80243-10.9952-3.43479-10.5189-4.22593-10.1121-5.18143-9.77786-6.13414-9.44357-7.16486-9.10929-8.27079-8.775-9.3795-8.43793-10.4102-7.98665-11.3629-7.42115-12.3156-6.85565-13.1096-6.10629-13.7391-5.17864-14.3715-4.251-14.6863-3.02807-14.6863-1.50707-14.6863-0.0417857-14.3966 1.248-13.8171 2.35672-13.2377 3.46264-12.4633 4.39029-11.4994 5.13686-10.5328 5.88622-9.4185 6.44615-8.15657 6.81943-6.89465 7.19272-5.59093 7.37936-4.25379 7.37936-2.70493 7.37936-1.21179 7.16207 0.231214 6.72193 1.67143 6.28457 2.97236 5.54914 4.13122 4.52122Z" fill="#1C5DB1" transform="matrix(1 0 0 -1.00078 2017.4 1226.66)"/><path d="M0 0C0 0.4875 0.0919286 0.952715 0.270214 1.39007 0.454072 1.82743 0.702 2.20629 1.02514 2.53222 1.34829 2.85257 1.72436 3.10329 2.1645 3.28436 2.60464 3.46264 3.06707 3.55457 3.55457 3.55457 4.04207 3.55457 4.50729 3.46264 4.95022 3.28436 5.38479 3.10329 5.76365 2.85257 6.08679 2.53222 6.40993 2.20629 6.66065 1.82743 6.84172 1.39007 7.02 0.952715 7.11193 0.4875 7.11193 0 7.11193-0.490286 7.02-0.9555 6.84172-1.39007 6.66065-1.83021 6.40993-2.20907 6.08679-2.53222 5.76365-2.85536 5.38479-3.10607 4.95022-3.28714 4.50729-3.46264 4.04207-3.55457 3.55457-3.55457 3.06707-3.55457 2.60464-3.46264 2.1645-3.28714 1.72436-3.10607 1.34829-2.85536 1.02514-2.53222 0.702-2.20907 0.454072-1.83021 0.270214-1.39007 0.0919286-0.9555 0-0.490286 0 0" fill="#1C5DB1" transform="matrix(1 0 0 -1.00078 2025.67 1244.02)"/><path d="M0 0C-0.593357 0.7215-1.32043 1.27586-2.184 1.66307-3.04479 2.0475-4.04207 2.2425-5.17864 2.2425-6.31243 2.2425-7.35986 2.02243-8.3265 1.58507-9.29315 1.14493-10.1289 0.534857-10.8392-0.250714-11.5468-1.03907-12.1039-1.9695-12.5023-3.05036-12.9006-4.134-13.1012-5.30679-13.1012-6.56872-13.1012-7.8585-12.9006-9.03407-12.5023-10.1066-12.1039-11.1763-11.5524-12.1039-10.8587-12.8867-10.1623-13.6751-9.34608-14.2851-8.4045-14.7225-7.46293-15.1626-6.45172-15.3799-5.36807-15.3799-4.134-15.3799-3.03922-15.1209-2.0865-14.6055-1.131-14.0929-0.348214-13.3686 0.270214-12.4438L5.29286-16.1906C4.134-17.8146 2.66872-19.0125 0.888643-19.7842-0.888643-20.5586-2.71607-20.943-4.59922-20.943-6.73586-20.943-8.70536-20.6087-10.5105-19.9374-12.3129-19.2688-13.8701-18.3105-15.1877-17.0597-16.4998-15.8117-17.5222-14.2963-18.2604-12.5218-18.993-10.7417-19.3579-8.76108-19.3579-6.56872-19.3579-4.37914-18.993-2.39572-18.2604-0.618429-17.5222 1.15886-16.4998 2.6715-15.1877 3.92229-13.8701 5.17307-12.3129 6.13136-10.5105 6.79993-8.70536 7.47129-6.73586 7.80557-4.59922 7.80557-3.82479 7.80557-3.01972 7.73593-2.184 7.59386-1.34829 7.449-0.523714 7.22615 0.289714 6.91693 1.10314 6.6105 1.88036 6.19822 2.62693 5.68007 3.3735 5.16472 4.04207 4.53514 4.63543 3.78579Z" fill="#1C5DB1" transform="matrix(1 0 0 -1.00078 2074.01 1227.09)"/><path d="M0 0 18.5891 0 18.5891-5.56307 6.02829-5.56307 6.02829-10.6665 17.8926-10.6665 17.8926-16.2296 6.02829-16.2296 6.02829-21.7954 19.2827-21.7954 19.2827-27.3585 0-27.3585Z" fill="#1C5DB1" transform="matrix(1 0 0 -1.00078 2086.99 1219.97)"/><path d="M0 0 8.19557 0 19.8232-19.0125 19.9011-19.0125 19.9011 0 25.9294 0 25.9294-27.3585 18.0459-27.3585 6.10907-7.88357 6.02829-7.88357 6.02829-27.3585 0-27.3585Z" fill="#1C5DB1" transform="matrix(1 0 0 -1.00078 2115.67 1219.97)"/><path d="M0 0-7.80279 0-7.80279 5.33186 13.8366 5.33186 13.8366 0 6.03107 0 6.03107-22.0267 0-22.0267Z" fill="#1C5DB1" transform="matrix(1 0 0 -1.00078 2156.45 1225.3)"/><path d="M0 0 18.5891 0 18.5891-5.56307 6.03107-5.56307 6.03107-10.6665 17.8926-10.6665 17.8926-16.2296 6.03107-16.2296 6.03107-21.7954 19.2827-21.7954 19.2827-27.3585 0-27.3585Z" fill="#1C5DB1" transform="matrix(1 0 0 -1.00078 2177.46 1219.97)"/><path d="M0 0 3.55179 0C4.095 0 4.66886 0.0222857 5.27336 0.0585 5.87786 0.0975 6.42665 0.211714 6.91693 0.406714 7.40443 0.601715 7.81115 0.902572 8.13429 1.31486 8.45186 1.72714 8.61343 2.30657 8.61343 3.05314 8.61343 3.74957 8.47415 4.30114 8.19279 4.71343 7.90865 5.12572 7.5465 5.44329 7.11193 5.66336 6.67179 5.88065 6.16757 6.03107 5.60207 6.10907 5.03379 6.18429 4.47943 6.22329 3.94179 6.22329L0 6.22329ZM-6.03107 11.3239 4.56022 11.3239C5.95029 11.3239 7.27072 11.1902 8.51872 10.9172 9.7695 10.647 10.8615 10.1957 11.8059 9.56615 12.7446 8.93379 13.4912 8.08415 14.0428 7.01443 14.5999 5.9475 14.8757 4.61314 14.8757 3.01693 14.8757 1.08364 14.3715-0.557143 13.3686-1.911 12.363-3.26486 10.8949-4.12007 8.96443-4.48222L15.9204-16.0346 8.69422-16.0346 2.97514-5.10064 0-5.10064 0-16.0346-6.03107-16.0346Z" fill="#1C5DB1" transform="matrix(1 0 0 -1.00078 2211.78 1231.3)"/><path d="M0 0C-0.490286 0.618429-1.15329 1.07529-1.989 1.37336-2.82472 1.66586-3.61864 1.81629-4.368 1.81629-4.80257 1.81629-5.25664 1.76336-5.71907 1.66029-6.18429 1.55721-6.61886 1.39564-7.03393 1.17836-7.44622 0.958286-7.7805 0.668572-8.03679 0.306429-8.29307-0.0529286-8.424-0.490286-8.424-1.00564-8.424-1.83021-8.11479-2.45979-7.49636-2.89714-6.87793-3.33729-6.09793-3.70779-5.15914-4.01979-4.21757-4.329-3.20636-4.63822-2.12272-4.94743-1.04186-5.25664-0.0334286-5.69679 0.908143-6.26229 1.84971-6.82779 2.62693-7.58829 3.24536-8.53822 3.86657-9.49372 4.173-10.7696 4.173-12.3658 4.173-13.8868 3.89164-15.2128 3.32336-16.3466 2.75786-17.4804 1.989-18.4219 1.02514-19.1685 0.0585-19.9151-1.06136-20.4694-2.33722-20.8288-3.61307-21.1882-4.95857-21.3692-6.37372-21.3692-8.151-21.3692-9.80015-21.099-11.3211-20.5586-12.8421-20.0182-14.2601-19.1406-15.5721-17.9316L-11.2821-13.2154C-10.6637-14.04-9.8865-14.6807-8.94493-15.1292-8.00615-15.5805-7.03393-15.8061-6.02829-15.8061-5.53522-15.8061-5.03936-15.7476-4.53793-15.6306-4.0365-15.5164-3.58522-15.3437-3.18686-15.1097-2.7885-14.8785-2.46536-14.5832-2.22022-14.2211-1.97786-13.8589-1.85529-13.4355-1.85529-12.9452-1.85529-12.1206-2.17007-11.4716-2.79964-10.9952-3.43479-10.5189-4.22593-10.1121-5.17586-9.77786-6.12857-9.44357-7.16207-9.10929-8.27079-8.775-9.37393-8.43793-10.4074-7.98665-11.3601-7.42115-12.3129-6.85565-13.1068-6.10629-13.7364-5.17864-14.3659-4.251-14.6863-3.02807-14.6863-1.50707-14.6863-0.0417857-14.3938 1.248-13.8144 2.35672-13.2349 3.46264-12.4605 4.39029-11.4939 5.13686-10.53 5.88622-9.41572 6.44615-8.151 6.81943-6.88907 7.19272-5.59093 7.37936-4.24822 7.37936-2.70493 7.37936-1.209 7.16207 0.231214 6.72193 1.677 6.28457 2.97514 5.54914 4.134 4.52122Z" fill="#1C5DB1" transform="matrix(1 0 0 -1.00078 2248.72 1226.66)"/><path d="M0 0 18.3551 0 18.3551-5.56307 6.03107-5.56307 6.03107-11.1289 17.4274-11.1289 17.4274-16.692 6.03107-16.692 6.03107-27.3585 0-27.3585Z" fill="#1C5DB1" transform="matrix(1 0 0 -1.00078 2276 1219.97)"/><path d="M0 0C0-1.28979 0.200571-2.46536 0.598929-3.53786 0.997286-4.60757 1.57114-5.53522 2.31772-6.318 3.06429-7.10636 3.9585-7.71643 5.00593-8.15379 6.045-8.59393 7.21222-8.81122 8.502-8.81122 9.78622-8.81122 10.9534-8.59393 11.9981-8.15379 13.0427-7.71643 13.9369-7.10636 14.6863-6.318 15.4329-5.53522 16.0039-4.60757 16.4023-3.53786 16.8034-2.46536 17.004-1.28979 17.004 6.18553e-16 17.004 1.26193 16.8034 2.43472 16.4023 3.51836 16.0039 4.59922 15.4329 5.53243 14.6863 6.318 13.9369 7.10357 13.0427 7.71365 11.9981 8.15379 10.9534 8.59115 9.78622 8.81122 8.502 8.81122 7.21222 8.81122 6.045 8.59115 5.00593 8.15379 3.9585 7.71365 3.06429 7.10357 2.31772 6.318 1.57114 5.53243 0.997286 4.59922 0.598929 3.51836 0.200571 2.43472 0 1.26193 0 0M-6.26229 0C-6.26229 2.18957-5.89457 4.173-5.15914 5.95029-4.42372 7.72757-3.39857 9.24022-2.08929 10.491-0.774429 11.7418 0.785572 12.7001 2.59072 13.3686 4.39029 14.04 6.36536 14.3743 8.502 14.3743 10.6386 14.3743 12.6081 14.04 14.4133 13.3686 16.2156 12.7001 17.7729 11.7418 19.0905 10.491 20.4026 9.24022 21.4277 7.72757 22.1632 5.95029 22.8958 4.173 23.2607 2.18957 23.2607 0 23.2607-2.19236 22.8958-4.173 22.1632-5.95029 21.4277-7.72757 20.4026-9.243 19.0905-10.491 17.7729-11.7418 16.2156-12.7001 14.4133-13.3686 12.6081-14.04 10.6386-14.3743 8.502-14.3743 6.36536-14.3743 4.39029-14.04 2.59072-13.3686 0.785572-12.7001-0.774429-11.7418-2.08929-10.491-3.39857-9.243-4.42372-7.72757-5.15914-5.95029-5.89457-4.173-6.26229-2.19236-6.26229-1.23711e-15" fill="#1C5DB1" transform="matrix(1 0 0 -1.00078 2306.34 1233.66)"/><path d="M0 0 3.55457 0C4.095 0 4.66886 0.0222857 5.27336 0.0585 5.87786 0.0975 6.42665 0.211714 6.91693 0.406714 7.40443 0.601715 7.81115 0.902572 8.1315 1.31486 8.45465 1.72714 8.61622 2.30657 8.61622 3.05314 8.61622 3.74957 8.47415 4.30114 8.19279 4.71343 7.90865 5.12572 7.5465 5.44329 7.10915 5.66336 6.67179 5.88065 6.16757 6.03107 5.60207 6.10907 5.03379 6.18429 4.48222 6.22329 3.94179 6.22329L0 6.22329ZM-6.03107 11.3239 4.55743 11.3239C5.95029 11.3239 7.27072 11.1902 8.5215 10.9172 9.7695 10.647 10.8615 10.1957 11.8031 9.56615 12.7446 8.93379 13.4912 8.08415 14.0456 7.01443 14.5999 5.9475 14.8757 4.61314 14.8757 3.01693 14.8757 1.08364 14.3743-0.557143 13.3686-1.911 12.363-3.26486 10.8949-4.12007 8.96443-4.48222L15.9204-16.0346 8.69422-16.0346 2.97236-5.10064 0-5.10064 0-16.0346-6.03107-16.0346Z" fill="#1C5DB1" transform="matrix(1 0 0 -1.00078 2342.04 1231.3)"/><path d="M0 0 3.12836 0C4.52122 0 5.81379 0.142071 7.01443 0.426214 8.2095 0.707572 9.24858 1.18114 10.1233 1.83579 10.998 2.49322 11.6889 3.35679 12.1903 4.4265 12.6917 5.49343 12.9424 6.80272 12.9424 8.34879 12.9424 9.68872 12.6917 10.8531 12.1903 11.8449 11.6889 12.8366 11.0119 13.6556 10.1623 14.2991 9.31265 14.9398 8.31257 15.4273 7.16765 15.7476 6.02272 16.0708 4.8165 16.2324 3.55457 16.2324L0 16.2324ZM-6.03107 21.7954 3.01414 21.7954C5.20093 21.7954 7.28186 21.5503 9.25415 21.0628 11.2236 20.5725 12.9424 19.7786 14.4133 18.6838 15.8814 17.5918 17.0458 16.1683 17.9094 14.4161 18.7701 12.6639 19.2047 10.5356 19.2047 8.03679 19.2047 5.82214 18.7841 3.86936 17.9484 2.184 17.1099 0.495857 15.9844-0.919286 14.5665-2.067 13.1514-3.21193 11.5161-4.08386 9.66086-4.67443 7.80279-5.26779 5.86115-5.56307 3.82479-5.56307L-6.03107-5.56307Z" fill="#1C5DB1" transform="matrix(1 0 0 -1.00078 2385.47 1241.78)"/><path d="M1256.02 677.453 1262.05 677.453 1262.05 650.094 1256.02 650.094Z" fill="#1C5DB1" transform="matrix(1 0 0 -1.00078 1156.14 1897.95)"/><path d="M0 0C-0.490286 0.618429-1.15329 1.07529-1.99179 1.37336-2.8275 1.66586-3.61864 1.81629-4.368 1.81629-4.80536 1.81629-5.25664 1.76336-5.71907 1.66029-6.18429 1.55721-6.62165 1.39564-7.03393 1.17836-7.44622 0.958286-7.7805 0.668572-8.03679 0.306429-8.29586-0.0529286-8.424-0.490286-8.424-1.00564-8.424-1.83021-8.11479-2.45979-7.49636-2.89714-6.87793-3.33729-6.10072-3.70779-5.15914-4.01979-4.21757-4.329-3.20636-4.63822-2.1255-4.94743-1.04186-5.25664-0.0334286-5.69679 0.908143-6.26229 1.84693-6.82779 2.62693-7.58829 3.24536-8.53822 3.86379-9.49372 4.173-10.7696 4.173-12.3658 4.173-13.8868 3.88886-15.2128 3.32336-16.3466 2.75507-17.4804 1.989-18.4219 1.02514-19.1685 0.0557143-19.9151-1.06136-20.4694-2.34-20.8288-3.61586-21.1882-4.95857-21.3692-6.3765-21.3692-8.15379-21.3692-9.80293-21.099-11.3239-20.5586-12.8449-20.0182-14.2601-19.1406-15.5749-17.9316L-11.2821-13.2154C-10.6665-14.04-9.8865-14.6807-8.94493-15.1292-8.00615-15.5805-7.03393-15.8061-6.03107-15.8061-5.538-15.8061-5.04214-15.7476-4.54072-15.6306-4.0365-15.5164-3.588-15.3437-3.18964-15.1097-2.7885-14.8785-2.46536-14.5832-2.223-14.2211-1.97786-13.8589-1.85529-13.4355-1.85529-12.9452-1.85529-12.1206-2.17007-11.4716-2.80243-10.9952-3.43479-10.5189-4.22593-10.1121-5.17864-9.77786-6.13136-9.44357-7.16207-9.10929-8.27079-8.775-9.37672-8.43793-10.4102-7.98665-11.3601-7.42115-12.3156-6.85565-13.1096-6.10629-13.7391-5.17864-14.3687-4.251-14.6863-3.02807-14.6863-1.50707-14.6863-0.0417857-14.3938 1.248-13.8144 2.35672-13.2349 3.46264-12.4633 4.39029-11.4966 5.13686-10.53 5.88622-9.41572 6.44615-8.15379 6.81943-6.89186 7.19272-5.59093 7.37936-4.251 7.37936-2.70493 7.37936-1.21179 7.16207 0.231214 6.72193 1.67421 6.28457 2.97514 5.54914 4.134 4.52122Z" fill="#1C5DB1" transform="matrix(1 0 0 -1.00078 2442.65 1226.66)"/><path d="M0 0 18.5891 0 18.5891-5.56307 6.03107-5.56307 6.03107-10.6665 17.8926-10.6665 17.8926-16.2296 6.03107-16.2296 6.03107-21.7954 19.2827-21.7954 19.2827-27.3585 0-27.3585Z" fill="#1C5DB1" transform="matrix(1 0 0 -1.00078 2455.07 1219.97)"/><path d="M0 0-3.32336-8.502 3.36236-8.502ZM-2.3205 7.95879 2.66593 7.95879 14.5665-19.3997 7.76657-19.3997 5.40986-13.6054-5.21764-13.6054-7.49915-19.3997-14.1431-19.3997Z" fill="#1C5DB1" transform="matrix(1 0 0 -1.00078 2494.05 1227.93)"/><path d="M0 0C-0.490286 0.618429-1.15329 1.07529-1.99179 1.37336-2.8275 1.66586-3.61864 1.81629-4.368 1.81629-4.80536 1.81629-5.25664 1.76336-5.71907 1.66029-6.18429 1.55721-6.62165 1.39564-7.03393 1.17836-7.44622 0.958286-7.7805 0.668572-8.03679 0.306429-8.29586-0.0529286-8.424-0.490286-8.424-1.00564-8.424-1.83021-8.11479-2.45979-7.49636-2.89714-6.87793-3.33729-6.10072-3.70779-5.15914-4.01979-4.21757-4.329-3.20636-4.63822-2.1255-4.94743-1.04186-5.25664-0.0334286-5.69679 0.908143-6.26229 1.84693-6.82779 2.62693-7.58829 3.24536-8.53822 3.86379-9.49372 4.173-10.7696 4.173-12.3658 4.173-13.8868 3.88886-15.2128 3.32336-16.3466 2.75507-17.4804 1.989-18.4219 1.02514-19.1685 0.0557143-19.9151-1.06136-20.4694-2.34-20.8288-3.61586-21.1882-4.95857-21.3692-6.3765-21.3692-8.15379-21.3692-9.80293-21.099-11.3239-20.5586-12.8449-20.0182-14.2601-19.1406-15.5749-17.9316L-11.2821-13.2154C-10.6665-14.04-9.8865-14.6807-8.94772-15.1292-8.00615-15.5805-7.03393-15.8061-6.03107-15.8061-5.538-15.8061-5.04214-15.7476-4.54072-15.6306-4.0365-15.5164-3.588-15.3437-3.18964-15.1097-2.7885-14.8785-2.46536-14.5832-2.223-14.2211-1.97786-13.8589-1.85529-13.4355-1.85529-12.9452-1.85529-12.1206-2.17007-11.4716-2.80243-10.9952-3.43479-10.5189-4.22593-10.1121-5.17864-9.77786-6.13136-9.44357-7.16207-9.10929-8.27079-8.775-9.37672-8.43793-10.4102-7.98665-11.3601-7.42115-12.3156-6.85565-13.1096-6.10629-13.7391-5.17864-14.3687-4.251-14.6863-3.02807-14.6863-1.50707-14.6863-0.0417857-14.3938 1.248-13.8144 2.35672-13.2349 3.46264-12.4633 4.39029-11.4966 5.13686-10.53 5.88622-9.41572 6.44615-8.15379 6.81943-6.89186 7.19272-5.59093 7.37936-4.251 7.37936-2.70493 7.37936-1.21179 7.16207 0.231214 6.72193 1.67421 6.28457 2.97514 5.54914 4.134 4.52122Z" fill="#1C5DB1" transform="matrix(1 0 0 -1.00078 2528.09 1226.66)"/><path d="M0 0 18.5891 0 18.5891-5.56307 6.03107-5.56307 6.03107-10.6665 17.8926-10.6665 17.8926-16.2296 6.03107-16.2296 6.03107-21.7954 19.2827-21.7954 19.2827-27.3585 0-27.3585Z" fill="#1C5DB1" transform="matrix(1 0 0 -1.00078 2540.52 1219.97)"/><path d="M0 0C-0.593357 0.7215-1.32043 1.27586-2.184 1.66307-3.04757 2.0475-4.04486 2.2425-5.17864 2.2425-6.31243 2.2425-7.36265 2.02243-8.3265 1.58507-9.29315 1.14493-10.1316 0.534857-10.8392-0.250714-11.5496-1.03907-12.1039-1.9695-12.5023-3.05036-12.9006-4.134-13.1012-5.30679-13.1012-6.56872-13.1012-7.8585-12.9006-9.03407-12.5023-10.1066-12.1039-11.1763-11.5551-12.1039-10.8587-12.8867-10.1651-13.6751-9.34608-14.2851-8.40729-14.7225-7.46293-15.1626-6.4545-15.3799-5.37086-15.3799-4.134-15.3799-3.03922-15.1209-2.08929-14.6055-1.13379-14.0929-0.348214-13.3686 0.270214-12.441L5.29286-16.1906C4.13122-17.8146 2.66593-19.0125 0.885857-19.7842-0.888643-20.5586-2.71886-20.943-4.59922-20.943-6.73586-20.943-8.70815-20.6087-10.5105-19.9374-12.3156-19.2688-13.8729-18.3105-15.1877-17.0597-16.4998-15.8117-17.5222-14.2963-18.2604-12.5218-18.9958-10.7417-19.3607-8.76108-19.3607-6.56872-19.3607-4.37914-18.9958-2.39572-18.2604-0.618429-17.5222 1.15886-16.4998 2.6715-15.1877 3.92229-13.8729 5.17307-12.3156 6.13136-10.5105 6.79993-8.70815 7.47129-6.73586 7.80557-4.59922 7.80557-3.82479 7.80557-3.0225 7.73593-2.184 7.59386-1.34829 7.449-0.523714 7.22615 0.289714 6.91693 1.10314 6.6105 1.87757 6.19822 2.62693 5.68007 3.37072 5.16472 4.04207 4.53514 4.63543 3.78579Z" fill="#1C5DB1" transform="matrix(1 0 0 -1.00078 1977.94 1271.56)"/><path d="M0 0C0-1.28979 0.200571-2.46536 0.598929-3.53786 0.997286-4.60757 1.56836-5.53522 2.31772-6.318 3.06429-7.10636 3.96129-7.71643 5.00314-8.15379 6.04779-8.59393 7.21222-8.81122 8.502-8.81122 9.789-8.81122 10.9534-8.59393 11.9981-8.15379 13.0399-7.71643 13.9369-7.10636 14.6863-6.318 15.4301-5.53522 16.0039-4.60757 16.4051-3.53786 16.8034-2.46536 17.004-1.28979 17.004 6.18553e-16 17.004 1.26193 16.8034 2.43472 16.4051 3.51836 16.0039 4.59922 15.4301 5.53243 14.6863 6.318 13.9369 7.10357 13.0399 7.71365 11.9981 8.15379 10.9534 8.59115 9.789 8.81122 8.502 8.81122 7.21222 8.81122 6.04779 8.59115 5.00314 8.15379 3.96129 7.71365 3.06429 7.10357 2.31772 6.318 1.56836 5.53243 0.997286 4.59922 0.598929 3.51836 0.200571 2.43472 0 1.26193 0 0M-6.2595 0C-6.2595 2.18957-5.89179 4.173-5.15914 5.95029-4.4265 7.72757-3.40136 9.24022-2.0865 10.491-0.774429 11.7418 0.788357 12.7001 2.58793 13.3686 4.39029 14.04 6.36257 14.3743 8.502 14.3743 10.6386 14.3743 12.6081 14.04 14.4133 13.3686 16.2156 12.7001 17.7729 11.7418 19.0905 10.491 20.4054 9.24022 21.4277 7.72757 22.1632 5.95029 22.8958 4.173 23.2607 2.18957 23.2607 0 23.2607-2.19236 22.8958-4.173 22.1632-5.95029 21.4277-7.72757 20.4054-9.243 19.0905-10.491 17.7729-11.7418 16.2156-12.7001 14.4133-13.3686 12.6081-14.04 10.6386-14.3743 8.502-14.3743 6.36257-14.3743 4.39029-14.04 2.58793-13.3686 0.788357-12.7001-0.774429-11.7418-2.0865-10.491-3.40136-9.243-4.4265-7.72757-5.15914-5.95029-5.89179-4.173-6.2595-2.19236-6.2595-1.23711e-15" fill="#1C5DB1" transform="matrix(1 0 0 -1.00078 1992.75 1278.13)"/><path d="M0 0 8.19279 0 19.8259-19.0125 19.9011-19.0125 19.9011 0 25.9267 0 25.9267-27.3585 18.0459-27.3585 6.10629-7.88357 6.03107-7.88357 6.03107-27.3585 0-27.3585Z" fill="#1C5DB1" transform="matrix(1 0 0 -1.00078 2022.57 1264.44)"/><path d="M0 0-7.80557 0-7.80557 5.33186 13.8339 5.33186 13.8339 0 6.02829 0 6.02829-22.0267 0-22.0267Z" fill="#1C5DB1" transform="matrix(1 0 0 -1.00078 2061.57 1269.78)"/><path d="M0 0 3.55457 0C4.09779 0 4.66886 0.0222857 5.27614 0.0585 5.88065 0.0975 6.42665 0.211714 6.91693 0.406714 7.40722 0.601715 7.81115 0.902572 8.13429 1.31486 8.45465 1.72714 8.61622 2.30657 8.61622 3.05314 8.61622 3.74957 8.47415 4.30114 8.19557 4.71343 7.90865 5.12572 7.5465 5.44329 7.11193 5.66336 6.67457 5.88065 6.17036 6.03107 5.60486 6.10907 5.03379 6.18429 4.48222 6.22329 3.94179 6.22329L0 6.22329ZM-6.02829 11.3239 4.56022 11.3239C5.95029 11.3239 7.2735 11.1902 8.5215 10.9172 9.7695 10.647 10.8643 10.1957 11.8059 9.56615 12.7446 8.93379 13.494 8.08415 14.0456 7.01443 14.5999 5.9475 14.8785 4.61314 14.8785 3.01693 14.8785 1.08364 14.3743-0.557143 13.3686-1.911 12.3658-3.26486 10.8977-4.12007 8.96443-4.48222L15.9204-16.0346 8.697-16.0346 2.97514-5.10064 0-5.10064 0-16.0346-6.02829-16.0346Z" fill="#1C5DB1" transform="matrix(1 0 0 -1.00078 2086.72 1275.77)"/><path d="M0 0C0-1.28979 0.200571-2.46536 0.598929-3.53786 0.997286-4.60757 1.57114-5.53522 2.31772-6.318 3.06707-7.10636 3.96129-7.71643 5.00593-8.15379 6.04779-8.59393 7.21222-8.81122 8.502-8.81122 9.789-8.81122 10.9534-8.59393 12.0009-8.15379 13.0427-7.71643 13.9369-7.10636 14.6863-6.318 15.4329-5.53522 16.0067-4.60757 16.4051-3.53786 16.8034-2.46536 17.004-1.28979 17.004 6.18553e-16 17.004 1.26193 16.8034 2.43472 16.4051 3.51836 16.0067 4.59922 15.4329 5.53243 14.6863 6.318 13.9369 7.10357 13.0427 7.71365 12.0009 8.15379 10.9534 8.59115 9.789 8.81122 8.502 8.81122 7.21222 8.81122 6.04779 8.59115 5.00593 8.15379 3.96129 7.71365 3.06707 7.10357 2.31772 6.318 1.57114 5.53243 0.997286 4.59922 0.598929 3.51836 0.200571 2.43472 0 1.26193 0 0M-6.2595 0C-6.2595 2.18957-5.89179 4.173-5.15914 5.95029-4.42372 7.72757-3.39857 9.24022-2.0865 10.491-0.771643 11.7418 0.788357 12.7001 2.59072 13.3686 4.39307 14.04 6.36536 14.3743 8.502 14.3743 10.6414 14.3743 12.6081 14.04 14.4161 13.3686 16.2156 12.7001 17.7757 11.7418 19.0905 10.491 20.4054 9.24022 21.4305 7.72757 22.1632 5.95029 22.8958 4.173 23.2607 2.18957 23.2607 0 23.2607-2.19236 22.8958-4.173 22.1632-5.95029 21.4305-7.72757 20.4054-9.243 19.0905-10.491 17.7757-11.7418 16.2156-12.7001 14.4161-13.3686 12.6081-14.04 10.6414-14.3743 8.502-14.3743 6.36536-14.3743 4.39307-14.04 2.59072-13.3686 0.788357-12.7001-0.771643-11.7418-2.0865-10.491-3.39857-9.243-4.42372-7.72757-5.15914-5.95029-5.89179-4.173-6.2595-2.19236-6.2595-1.23711e-15" fill="#1C5DB1" transform="matrix(1 0 0 -1.00078 2112.6 1278.13)"/><path d="M0 0 6.03107 0 6.03107-21.7954 17.1962-21.7954 17.1962-27.3585 0-27.3585Z" fill="#1C5DB1" transform="matrix(1 0 0 -1.00078 2142.53 1264.44)"/><path d="M0 0-3.32336-8.502 3.36236-8.502ZM-2.31772 7.95879 2.66593 7.95879 14.5693-19.3997 7.76657-19.3997 5.40986-13.6054-5.21486-13.6054-7.49636-19.3997-14.1431-19.3997Z" fill="#1C5DB1" transform="matrix(1 0 0 -1.00078 2192.77 1272.41)"/><path d="M0 0 8.19279 0 19.8232-19.0125 19.8984-19.0125 19.8984 0 25.9267 0 25.9267-27.3585 18.0431-27.3585 6.10629-7.88357 6.02829-7.88357 6.02829-27.3585 0-27.3585Z" fill="#1C5DB1" transform="matrix(1 0 0 -1.00078 2211.54 1264.44)"/><path d="M0 0 3.12836 0C4.52122 0 5.81379 0.142071 7.01443 0.426214 8.21229 0.707572 9.24858 1.18114 10.1233 1.83579 11.0008 2.49322 11.6916 3.35679 12.1931 4.4265 12.6917 5.49343 12.9452 6.80272 12.9452 8.34879 12.9452 9.68872 12.6917 10.8531 12.1931 11.8449 11.6916 12.8366 11.0147 13.6556 10.1651 14.2991 9.31265 14.9398 8.31536 15.4273 7.16765 15.7476 6.02272 16.0708 4.8165 16.2324 3.55457 16.2324L0 16.2324ZM-6.03107 21.7954 3.01693 21.7954C5.20372 21.7954 7.28465 21.5503 9.25415 21.0628 11.2264 20.5725 12.9452 19.7786 14.4133 18.6838 15.8814 17.5918 17.0486 16.1683 17.9121 14.4161 18.7729 12.6639 19.2047 10.5356 19.2047 8.03679 19.2047 5.82214 18.7841 3.86936 17.9484 2.184 17.1126 0.495857 15.9872-0.919286 14.5693-2.067 13.1514-3.21193 11.5161-4.08386 9.66086-4.67443 7.80557-5.26779 5.86393-5.56307 3.82479-5.56307L-6.03107-5.56307Z" fill="#1C5DB1" transform="matrix(1 0 0 -1.00078 2251.53 1286.25)"/><path d="M0 0 4.017 0C4.56022 0 5.08114 0.0501429 5.58257 0.153214 6.08679 0.259072 6.5325 0.431786 6.93643 0.676929 7.33479 0.922072 7.65515 1.25636 7.90307 1.68257 8.14543 2.106 8.27079 2.64086 8.27079 3.28714 8.27079 3.98079 8.10922 4.54072 7.78329 4.96414 7.46015 5.39036 7.05065 5.71907 6.54922 5.95029 6.045 6.18429 5.48786 6.33193 4.86664 6.396 4.24822 6.45729 3.65486 6.4935 3.08936 6.4935L0 6.4935ZM-6.03107 11.5941 4.134 11.5941C5.54914 11.5941 6.88907 11.4632 8.151 11.2069 9.41293 10.9479 10.5161 10.5049 11.4549 9.87257 12.3964 9.243 13.143 8.39057 13.6974 7.32365 14.2517 6.25393 14.5275 4.90843 14.5275 3.28714 14.5275 1.68814 14.2712 0.348214 13.7559-0.732643 13.2405-1.81629 12.5301-2.67986 11.6276-3.32336 10.7278-3.96686 9.66086-4.42372 8.424-4.69672 7.18715-4.96414 5.84722-5.10064 4.40422-5.10064L0-5.10064 0-15.7671-6.03107-15.7671Z" fill="#1C5DB1" transform="matrix(1 0 0 -1.00078 2299.26 1276.04)"/><path d="M0 0 3.55457 0C4.095 0 4.66886 0.0222857 5.27336 0.0585 5.87786 0.0975 6.42665 0.211714 6.91693 0.406714 7.40443 0.601715 7.81115 0.902572 8.1315 1.31486 8.45465 1.72714 8.61622 2.30657 8.61622 3.05314 8.61622 3.74957 8.47415 4.30114 8.19279 4.71343 7.90865 5.12572 7.5465 5.44329 7.10915 5.66336 6.67179 5.88065 6.16757 6.03107 5.60207 6.10907 5.03379 6.18429 4.48222 6.22329 3.94179 6.22329L0 6.22329ZM-6.03107 11.3239 4.55743 11.3239C5.95029 11.3239 7.27072 11.1902 8.5215 10.9172 9.7695 10.647 10.8615 10.1957 11.8031 9.56615 12.7446 8.93379 13.4912 8.08415 14.0456 7.01443 14.5999 5.9475 14.8757 4.61314 14.8757 3.01693 14.8757 1.08364 14.3743-0.557143 13.3686-1.911 12.363-3.26486 10.8949-4.12007 8.96443-4.48222L15.9204-16.0346 8.69422-16.0346 2.97236-5.10064 0-5.10064 0-16.0346-6.03107-16.0346Z" fill="#1C5DB1" transform="matrix(1 0 0 -1.00078 2325.47 1275.77)"/><path d="M0 0 18.5891 0 18.5891-5.56307 6.03107-5.56307 6.03107-10.6665 17.8926-10.6665 17.8926-16.2296 6.03107-16.2296 6.03107-21.7954 19.2827-21.7954 19.2827-27.3585 0-27.3585Z" fill="#1C5DB1" transform="matrix(1 0 0 -1.00078 2347.21 1264.44)"/><path d="M0 0 6.87515 0 13.6389-17.9316 13.7169-17.9316 20.5976 0 27.0493 0 15.7671-27.3585 10.9367-27.3585Z" fill="#1C5DB1" transform="matrix(1 0 0 -1.00078 2369.64 1264.44)"/><path d="M0 0 18.5891 0 18.5891-5.56307 6.03107-5.56307 6.03107-10.6665 17.8926-10.6665 17.8926-16.2296 6.03107-16.2296 6.03107-21.7954 19.2827-21.7954 19.2827-27.3585 0-27.3585Z" fill="#1C5DB1" transform="matrix(1 0 0 -1.00078 2400.66 1264.44)"/><path d="M0 0 8.19279 0 19.8259-19.0125 19.9011-19.0125 19.9011 0 25.9294 0 25.9294-27.3585 18.0459-27.3585 6.10629-7.88357 6.03107-7.88357 6.03107-27.3585 0-27.3585Z" fill="#1C5DB1" transform="matrix(1 0 0 -1.00078 2427.18 1264.44)"/><path d="M0 0-7.80557 0-7.80557 5.33186 13.8366 5.33186 13.8366 0 6.03107 0 6.03107-22.0267 0-22.0267Z" fill="#1C5DB1" transform="matrix(1 0 0 -1.00078 2466.18 1269.78)"/><path d="M1330.13 633.015 1336.15 633.015 1336.15 605.656 1330.13 605.656Z" fill="#1C5DB1" transform="matrix(1 0 0 -1.00078 1156.14 1897.95)"/><path d="M0 0C0-1.28979 0.200571-2.46536 0.598929-3.53786 0.997286-4.60757 1.57114-5.53522 2.31772-6.318 3.06429-7.10636 3.9585-7.71643 5.00314-8.15379 6.045-8.59393 7.21222-8.81122 8.502-8.81122 9.789-8.81122 10.9534-8.59393 11.9981-8.15379 13.0399-7.71643 13.9369-7.10636 14.6863-6.318 15.4329-5.53522 16.0039-4.60757 16.4023-3.53786 16.8034-2.46536 17.004-1.28979 17.004 6.18553e-16 17.004 1.26193 16.8034 2.43472 16.4023 3.51836 16.0039 4.59922 15.4329 5.53243 14.6863 6.318 13.9369 7.10357 13.0399 7.71365 11.9981 8.15379 10.9534 8.59115 9.789 8.81122 8.502 8.81122 7.21222 8.81122 6.045 8.59115 5.00314 8.15379 3.9585 7.71365 3.06429 7.10357 2.31772 6.318 1.57114 5.53243 0.997286 4.59922 0.598929 3.51836 0.200571 2.43472 0 1.26193 0 0M-6.26229 0C-6.26229 2.18957-5.89179 4.173-5.15914 5.95029-4.4265 7.72757-3.40136 9.24022-2.0865 10.491-0.774429 11.7418 0.785572 12.7001 2.58793 13.3686 4.39029 14.04 6.36257 14.3743 8.502 14.3743 10.6386 14.3743 12.6081 14.04 14.4133 13.3686 16.2156 12.7001 17.7729 11.7418 19.0905 10.491 20.4026 9.24022 21.4277 7.72757 22.1632 5.95029 22.8958 4.173 23.2607 2.18957 23.2607 0 23.2607-2.19236 22.8958-4.173 22.1632-5.95029 21.4277-7.72757 20.4026-9.243 19.0905-10.491 17.7729-11.7418 16.2156-12.7001 14.4133-13.3686 12.6081-14.04 10.6386-14.3743 8.502-14.3743 6.36257-14.3743 4.39029-14.04 2.58793-13.3686 0.785572-12.7001-0.774429-11.7418-2.0865-10.491-3.40136-9.243-4.4265-7.72757-5.15914-5.95029-5.89179-4.173-6.26229-2.19236-6.26229-1.23711e-15" fill="#1C5DB1" transform="matrix(1 0 0 -1.00078 2504.58 1278.13)"/><path d="M0 0 8.19279 0 19.8259-19.0125 19.9011-19.0125 19.9011 0 25.9294 0 25.9294-27.3585 18.0459-27.3585 6.10629-7.88357 6.03107-7.88357 6.03107-27.3585 0-27.3585Z" fill="#1C5DB1" transform="matrix(1 0 0 -1.00078 2533.86 1264.44)"/><path d="M0 0 123.633 0 541.816 0C571.868 0 596.592 22.8429 599.564 52.1124 599.762 54.0652 599.862 56.0458 599.862 58.0487L599.862 373.057 131.728 373.057 58.0487 373.057C38.0111 373.057 20.3469 362.906 9.91436 347.465 7.82786 344.376 6.03107 341.077 4.563 337.604 1.62407 330.659 0 323.023 0 315.009Z" fill="#1C5DB1" transform="matrix(1 0 0 -1.00078 1959.92 1184.45)"/><path d="M0 0C-2.97236-29.2723-27.6928-52.1124-57.7479-52.1124L-471.666-52.1124-155.688 75.5514C-144.066 71.2586-132.009 69.3142-121.092 69.3142-88.3601 69.3142-71.0441 86.555-67.0967 91.0344-66.5786 91.6222-66.5842 92.4941-67.1079 93.0763L-79.1672 106.467 0.300857 138.575 0.300857 5.93636C0.300857 3.93064 0.197786 1.95279 0 0M-537.534-52.1124-358.725 73.0888-313.362 73.0888C-263.573 73.0888-224.969 102.116-224.969 156.156-224.969 214.703-261.264 238.154-311.607 240.026L-234.524 320.945-21.8651 320.945-158.641 235.084C-185.991 224.036-209.945 199.546-209.945 155.838-209.945 116.95-190.796 93.2964-167.321 80.769L-496.214-52.1124ZM-599.561-45.5632-530.244 135.057C-522.907 99.3665-496.74 80.3623-470.134 73.0025L-582.788-52.1124-599.561-52.1124ZM-595.001 285.491C-593.533 288.965-591.736 292.263-589.65 295.353-579.217 310.794-561.55 320.945-541.515 320.945L-468.755 320.945-508.485 217.425C-522.589 203.689-532.292 183.657-532.292 155.838-532.292 155.696-532.281 155.56-532.281 155.418L-599.561-19.8984-599.561 262.896C-599.561 270.911-597.94 278.546-595.001 285.491M-324.174 240.165-372.004 240.165C-372.851 240.165-373.539 239.48-373.539 238.633L-373.539 74.6237C-373.539 74.412-373.495 74.2115-373.417 74.0276L-553.563-52.1124-570.417-52.1124-459.816 70.721C-454.211 69.7794-448.692 69.3142-443.441 69.3142-410.706 69.3142-393.39 86.555-389.443 91.0344-388.928 91.6222-388.93 92.4941-389.454 93.0763L-410.23 116.148C-410.793 116.774-411.762 116.836-412.389 116.273-416.027 112.991-428.504 103.122-447.202 102.81-470.752 102.417-494.609 121.95-494.609 155.838-494.609 189.727-469.989 208.873-446.929 208.873-429.805 208.873-418.774 200.805-415.411 197.958-414.782 197.424-413.851 197.502-413.3 198.114L-392.385 221.345C-391.878 221.907-391.844 222.751-392.329 223.334-395.753 227.443-410.458 242.363-443.441 242.363-459.793 242.363-478.469 238.126-494.47 228.278L-458.905 320.945-247.221 320.945ZM-317.611 107.072-335.191 107.072C-336.041 107.072-336.726 107.757-336.726 108.604L-336.726 204.65C-336.726 205.497-336.041 206.185-335.191 206.185L-315.014 206.185C-283.867 206.185-263.197 190.847-263.197 158.045-263.197 120.05-283.394 107.072-317.611 107.072M-87.8838 116.148C-88.4465 116.774-89.4159 116.836-90.0427 116.273-93.6808 112.991-106.158 103.122-124.856 102.81-148.403 102.417-172.263 121.95-172.263 155.838-172.263 189.727-147.643 208.873-124.583 208.873-107.456 208.873-96.4275 200.805-93.0652 197.958-92.4356 197.424-91.5052 197.502-90.9536 198.114L-70.0385 221.345C-69.5315 221.907-69.498 222.751-69.9827 223.334-73.4064 227.443-88.1122 242.363-121.092 242.363-124.157 242.363-127.31 242.196-130.505 241.892L-4.57136 320.945 0.300857 320.945 0.300857 148.493-85.7137 113.741ZM-541.515 332.556C-579.925 332.556-611.172 301.306-611.172 262.896L-611.172-63.7232-523.857-63.7232-504.666-63.7232-57.7479-63.7232C-19.3384-63.7232 11.9089-32.4759 11.9089 5.93636L11.9089 332.556Z" fill="#FFFFFF" transform="matrix(1 0 0 -1.00078 2559.48 1132.3)"/><path d="M0 0 3.03364 0 3.03364-8.8335 4.65493-8.8335 4.65493 0 7.69136 0 7.69136 1.48757 0 1.48757Z" fill="#1C5DB1" transform="matrix(1 0 0 -1.00078 2555.2 1175.99)"/><path d="M0 0-2.85536-7.83343-5.6745-0.231214-5.76086 0-7.74986 0-7.74986-10.3211-6.13136-10.3211-6.13136-3.32893-3.55179-10.3211-2.20629-10.3211 0.359357-3.33729 0.359357-10.3211 1.97786-10.3211 1.97786 0Z" fill="#1C5DB1" transform="matrix(1 0 0 -1.00078 2571.72 1174.5)"/></g></g></g><rect x="1181" y="810" width="703" height="482" fill="#0B76A0"/><path d="M0 52.0003 0 0 706 52.0003Z" fill="#83CBEB" fill-rule="evenodd" transform="matrix(-1 0 0 1 1884 1239)"/><text fill="#FFFF00" font-family="Aptos,Aptos_MSFontService,sans-serif" font-weight="700" font-size="83" transform="matrix(1 0 0 1 1213.97 937)">Comité des </text><text fill="#FFFF00" font-family="Aptos,Aptos_MSFontService,sans-serif" font-weight="700" font-size="83" transform="matrix(1 0 0 1 1213.97 1036)">Opérations </text><text fill="#FFFF00" font-family="Aptos,Aptos_MSFontService,sans-serif" font-weight="700" font-size="83" transform="matrix(1 0 0 1 1213.97 1135)">d’Urgence Polio</text><text fill="#FFB7B7" font-family="Aptos,Aptos_MSFontService,sans-serif" font-weight="700" font-size="83" transform="matrix(1 0 0 1 1213.97 1234)">COUP</text><text fill="#FFB7B7" font-family="Aptos,Aptos_MSFontService,sans-serif" font-weight="700" font-size="83" transform="matrix(1 0 0 1 1437.78 1234)">-</text><text fill="#FFB7B7" font-family="Aptos,Aptos_MSFontService,sans-serif" font-weight="700" font-size="83" transform="matrix(1 0 0 1 1465.85 1234)">RDC</text></g></svg>